<svg id="SvgjsSvg1001" width="288" height="288" xmlns="http://www.w3.org/2000/svg" version="1.1" xmlns:xlink="http://www.w3.org/1999/xlink" xmlns:svgjs="http://svgjs.com/svgjs"><defs id="SvgjsDefs1002"></defs><g id="SvgjsG1008" transform="matrix(1,0,0,1,0,0)"><svg xmlns="http://www.w3.org/2000/svg" width="288" height="288" enable-background="new 0 0 612 612" viewBox="0 0 612 612"><path d="M604.267 194.727c4.257 0 7.733-3.644 7.733-7.733v-40.169c0-4.256-3.283-7.733-7.733-7.733H7.733c-4.256 0-7.733 3.644-7.733 7.733v40.169c0 4.256 3.283 7.733 7.733 7.733H604.267zM0 326.084c0 4.256 3.283 7.733 7.733 7.733h596.533c4.256 0 7.733-3.645 7.733-7.733v-40.169c0-4.284-3.283-7.733-7.733-7.733H7.733c-4.256 0-7.733 3.645-7.733 7.733V326.084zM0 465.175c0 4.256 3.283 7.733 7.733 7.733h596.533c4.256 0 7.733-3.645 7.733-7.733v-40.169c0-4.256-3.283-7.732-7.733-7.732H7.733c-4.256 0-7.733 3.644-7.733 7.732V465.175z" fill="#f75005" class="color000 svgShape"></path></svg></g></svg>